<!DOCTYPE html>
<html>
<head>
<title>FYC</title>
<center><h1>FYC://Rick.and.Morty.S05.1080p.AMZN.WEBRip.DDP5.1.x264-NTb</h1></center>
<!--Link to torrent = |    |-->
<style>

/* Styling for the button */
.button {
background-color: transparent;
border: none;
color: #f1f1f1;
text-align: left;
font-size: 16px;
font-weight: bold;
font-family: 'Ubuntu', sans-serif;
cursor: pointer; 
width: 100%;
height: 50px;
margin-bottom: 5px;
}

/* Styling for the button when hovered */
.button:hover {
background-color: rgba(255, 255, 255, 0.1);
}

/* Styling for the button text in dark mode */
.button {
color: #f1f1f1;
}
</style>
</head>
<body>
<!-- Sidebar -->
<div class="sidebar">




<!-- Home -->
<button class="button" onclick="window.location.href='index.html'">Home</button>


<!-- Magnet -->
<button class="button" onclick="window.location.href='magnet:?xt=urn:btih:594D345E4AC9F98F3AE6DBB5556A130503FFC84C&dn=Rick.and.Morty.S05.1080p.AMZN.WEBRip.DDP5.1.x264-NTb&tr=http%3A%2F%2Ftracker.trackerfix.com%3A80%2Fannounce&tr=udp%3A%2F%2F9.rarbg.me%3A2980%2Fannounce&tr=udp%3A%2F%2F9.rarbg.to%3A2800%2Fannounce&tr=udp%3A%2F%2Ftracker.fatkhoala.org%3A13780%2Fannounce&tr=udp%3A%2F%2Ftracker.slowcheetah.org%3A14750%2Fannounce&tr=udp%3A%2F%2Ftracker.opentrackr.org%3A1337%2Fannounce&tr=http%3A%2F%2Ftracker.openbittorrent.com%3A80%2Fannounce&tr=udp%3A%2F%2Fopentracker.i2p.rocks%3A6969%2Fannounce&tr=udp%3A%2F%2Ftracker.internetwarriors.net%3A1337%2Fannounce&tr=udp%3A%2F%2Ftracker.leechers-paradise.org%3A6969%2Fannounce&tr=udp%3A%2F%2Fcoppersurfer.tk%3A6969%2Fannounce&tr=udp%3A%2F%2Ftracker.zer0day.to%3A1337%2Fannounce'">Magnet</button>


<!-- Torrent -->
<button class="button" onclick="window.location.href='http://itorrents.org/torrent/594D345E4AC9F98F3AE6DBB5556A130503FFC84C.torrent'">Torrent</button>




</div>

<!-- Content -->
<div style="margin-left: 20%;">
<link rel="shortcut icon" href="FYC Rewrite.ico" />
<style>
body {
background-image: url('With\ Credit\ Protogen.png');
background-repeat: no-repeat;
background-attachment: fixed;
background-size: cover;
}

/* Hide the photos by default */
/* DO NOT EDIT THE CODE IT WILL STOP WORKING */
.photo {
display: none;
}
</style>
</head>
</div>

<center><h1>Descption:</h1></center>
<!--Text Start-->
<p><h2>
<center>
<center><p><img src="295578_banner_optimized.jpg"></p></center>
Video
ID : 1
Format : AVC
Format/Info : Advanced Video Codec
Format profile : High@L4
Format settings : CABAC / 4 Ref Frames
Format settings, CABAC : Yes
Format settings, Reference frames : 4 frames
Codec ID : V_MPEG4/ISO/AVC
Duration : 23 min 29 s
Bit rate mode : Constant
Bit rate : 5 039 kb/s
Nominal bit rate : 10 000 kb/s
Width : 1 920 pixels
Height : 1 080 pixels
Display aspect ratio : 16:9
Frame rate mode : Constant
Frame rate : 23.976 (24000/1001) FPS
Color space : YUV
Chroma subsampling : 4:2:0
Bit depth : 8 bits
Scan type : Progressive
Bits/(Pixel*Frame) : 0.101
Stream size : 847 MiB (89%)
Default : Yes
Forced : No
Color range : Limited
Color primaries : BT.709
Transfer characteristics : BT.709
Matrix coefficients : BT.709

Audio
ID : 2
Format : E-AC-3
Format/Info : Enhanced AC-3
Commercial name : Dolby Digital Plus
Codec ID : A_EAC3
Duration : 23 min 29 s
Bit rate mode : Constant
Bit rate : 640 kb/s
Channel(s) : 6 channels
Channel layout : L R C LFE Ls Rs
Sampling rate : 48.0 kHz
Frame rate : 31.250 FPS (1536 SPF)
Compression mode : Lossy
Stream size : 108 MiB (11%)
Language : English
Service kind : Complete Main
Default : Yes
Forced : No

Text #1
ID : 3
Format : UTF-8
Codec ID : S_TEXT/UTF8
Codec ID/Info : UTF-8 Plain Text
Duration : 23 min 10 s
Bit rate : 112 b/s
Count of elements : 559
Stream size : 19.1 KiB (0%)
Language : English
Default : No
Forced : No

Text #2
ID : 4
Format : UTF-8
Codec ID : S_TEXT/UTF8
Codec ID/Info : UTF-8 Plain Text
Duration : 23 min 17 s
Bit rate : 115 b/s
Count of elements : 599
Stream size : 19.7 KiB (0%)
Title : SDH
Language : English
Default : No
Forced : No
</center>
</h2></p>
<!--Text End-->

<!--Notes-->
<center><h1>Notes:</h1></center>
<p><h2>
<center>
There is no note for this torrent
</center>
</h2></p>

<!-- Import the Ubuntu Bold font -->
<link rel="stylesheet" href="https://fonts.googleapis.com/css2?family=Ubuntu:wght@700&display=swap">
</body>
</html>
